<svg width="316" height="178" viewBox="0 0 316 178" fill="none" xmlns="http://www.w3.org/2000/svg">
<path d="M109.23 129.392L84.7601 153.861C76.6608 161.863 65.724 166.336 54.3382 166.302C42.9524 166.268 32.0426 161.73 23.9915 153.679C15.9404 145.628 11.4021 134.718 11.3678 123.332C11.3334 111.946 15.8058 101.009 23.8081 92.9099L60.3571 56.3609C60.3381 55.7169 60.3251 55.0719 60.3251 54.4249C60.3216 48.9819 61.0203 43.5611 62.4041 38.2969L15.8041 84.8969C5.65731 95.1163 -0.02563 108.941 8.69031e-05 123.342C0.0258039 137.743 5.75808 151.547 15.9413 161.73C26.1245 171.913 39.9285 177.645 54.3296 177.67C68.7307 177.696 82.5549 172.013 92.7741 161.866L117.243 137.397L109.23 129.392Z" fill="url(#paint0_linear_786_6630)"/>
<path d="M192.204 177.786C185.057 177.798 177.978 176.398 171.374 173.666C164.77 170.935 158.77 166.925 153.72 161.868L84.7601 92.9077C74.5769 82.696 68.863 68.8601 68.8732 54.4387C68.8834 40.0173 74.6169 26.1895 84.8146 15.9922C95.0123 5.79492 108.84 0.0619164 123.262 0.0522583C137.683 0.0426003 151.519 5.75709 161.73 15.9407L230.69 84.9007C238.305 92.5088 243.492 102.205 245.594 112.763C247.697 123.32 246.619 134.264 242.499 144.209C238.378 154.154 231.4 162.652 222.447 168.63C213.494 174.607 202.97 177.793 192.205 177.786H192.204ZM161.73 153.861C169.833 161.847 180.764 166.305 192.141 166.264C203.517 166.223 214.416 161.685 222.461 153.64C230.505 145.596 235.043 134.697 235.084 123.321C235.125 111.944 230.667 101.012 222.681 92.9097L153.721 23.9497C149.729 19.8998 144.976 16.6798 139.734 14.4752C134.493 12.2706 128.867 11.125 123.181 11.1044C117.494 11.0837 111.86 12.1885 106.603 14.355C101.346 16.5215 96.569 19.707 92.5482 23.7278C88.5274 27.7486 85.3419 32.5253 83.1754 37.7827C81.0089 43.0401 79.9041 48.6742 79.9248 54.3604C79.9454 60.0467 81.091 65.6727 83.2956 70.9142C85.5002 76.1557 88.7202 80.9092 92.7701 84.9007L161.73 153.861Z" fill="url(#paint1_linear_786_6630)"/>
<path d="M222.68 15.9408L198.211 40.4098L206.22 48.4188L230.689 23.9498C238.792 15.9639 249.723 11.5055 261.1 11.5467C272.476 11.588 283.375 16.1256 291.42 24.1702C299.464 32.2147 304.002 43.1135 304.043 54.4901C304.084 65.8667 299.626 76.7982 291.64 84.9008L255.063 121.478C255.248 127.576 254.55 133.669 252.992 139.567L299.649 92.9098C309.856 82.7031 315.59 68.8598 315.59 54.4253C315.59 39.9908 309.856 26.1476 299.649 15.9408C289.442 5.73409 275.599 0 261.164 0C246.73 0 232.887 5.73409 222.68 15.9408Z" fill="url(#paint2_linear_786_6630)"/>
<defs>
<linearGradient id="paint0_linear_786_6630" x1="-3.28281" y1="124.987" x2="330.429" y2="63.3041" gradientUnits="userSpaceOnUse">
<stop stop-color="#E7267A"/>
<stop offset="0.502" stop-color="#64328A"/>
<stop offset="1" stop-color="#2B4B9B"/>
</linearGradient>
<linearGradient id="paint1_linear_786_6630" x1="-1.87883" y1="130.687" x2="327.696" y2="44.4537" gradientUnits="userSpaceOnUse">
<stop stop-color="#E7267A"/>
<stop offset="0.502" stop-color="#64328A"/>
<stop offset="1" stop-color="#2B4B9B"/>
</linearGradient>
<linearGradient id="paint2_linear_786_6630" x1="-0.628608" y1="136.217" x2="333.591" y2="74.4764" gradientUnits="userSpaceOnUse">
<stop stop-color="#E7267A"/>
<stop offset="0.502" stop-color="#64328A"/>
<stop offset="1" stop-color="#2B4B9B"/>
</linearGradient>
</defs>
</svg>
