<svg width="370" height="500" viewBox="0 0 370 500" fill="none" xmlns="http://www.w3.org/2000/svg">
<path d="M273.252 103.647C290.668 149.617 361.71 182.048 209.624 222.936C138.227 285.68 65.8397 259.053 48.4233 213.083C27.6956 191.989 40.0836 139.511 57.2566 109.257C42.7448 60.2556 108.473 48.8125 143.971 58.1997C167.004 -3.32406 298.256 47.3253 273.252 103.647Z" fill="url(#paint0_linear_353_743)"/>
<path d="M227.515 201.385L220.602 206.204L220.654 215.669L216.17 207.516L207.931 207.182L214.844 202.363L214.792 192.898L219.275 201.052L227.515 201.385Z" fill="white"/>
<path d="M260.046 92.1358L248.719 98.9305L247.981 110.919L241.612 101.034L228.639 101.432L239.966 94.6369L240.704 82.648L247.072 92.5334L260.046 92.1358Z" fill="#FFCF24"/>
<path d="M94.0458 352.136L82.7189 358.931L81.981 370.919L75.6123 361.034L62.6387 361.432L73.9656 354.637L74.7036 342.648L81.0722 352.533L94.0458 352.136Z" fill="#FFCF24"/>
<path d="M51.6636 194.858C51.7741 177.178 55.4229 159.693 62.4017 143.4C69.3805 127.108 79.5525 112.328 92.3371 99.903C105.122 87.4783 120.268 77.6528 136.912 70.9875C153.557 64.3222 171.372 60.9476 189.342 61.0563C207.311 61.165 225.083 64.755 241.643 71.6212C258.202 78.4874 273.225 88.4955 285.853 101.074C298.481 113.652 308.468 128.555 315.242 144.93C322.017 161.306 325.447 178.834 325.336 196.514L314.268 196.447C314.37 180.197 311.217 164.087 304.991 149.036C298.764 133.985 289.585 120.288 277.979 108.727C266.372 97.1656 252.564 87.9671 237.344 81.6563C222.124 75.3454 205.79 72.0458 189.273 71.9459C172.757 71.8459 156.383 74.9476 141.085 81.0738C125.787 87.2 111.866 96.2307 100.115 107.65C88.3648 119.07 79.0155 132.655 72.6012 147.63C66.1869 162.604 62.8333 178.675 62.7317 194.925L51.6636 194.858Z" fill="#F24E1E"/>
<path d="M60.4026 195.38C60.5548 178.965 64.0156 162.72 70.5874 147.575C77.1592 132.429 86.7134 118.679 98.7043 107.109C110.695 95.5386 124.888 86.3754 140.473 80.1424C156.057 73.9093 172.728 70.7284 189.534 70.7813C206.339 70.8342 222.95 74.1199 238.418 80.4507C253.886 86.7815 267.909 96.0334 279.684 107.678C291.46 119.323 300.759 133.133 307.049 148.319C313.34 163.505 316.499 179.77 316.347 196.186L305.996 196.153C306.136 181.066 303.232 166.116 297.45 152.158C291.668 138.2 283.122 125.508 272.299 114.805C261.475 104.102 248.587 95.5981 234.371 89.7794C220.154 83.9607 204.886 80.9408 189.44 80.8922C173.994 80.8435 158.671 83.7672 144.347 89.496C130.023 95.2249 116.978 103.647 105.957 114.281C94.9363 124.915 86.155 137.554 80.1147 151.474C74.0744 165.395 70.8936 180.325 70.7537 195.413L60.4026 195.38Z" fill="#FF7324"/>
<path d="M71.2759 194.605C71.3154 179.301 74.3913 164.176 80.3279 150.094C86.2644 136.012 94.9454 123.249 105.875 112.533C116.805 101.816 129.77 93.357 144.029 87.6377C158.288 81.9184 173.562 79.0512 188.98 79.1997C204.397 79.3482 219.656 82.5096 233.885 88.5033C248.114 94.4969 261.034 103.206 271.908 114.132C282.782 125.058 291.397 137.988 297.26 152.184C303.124 166.38 306.121 181.563 306.082 196.867L296.586 196.775C296.622 182.709 293.867 168.754 288.477 155.707C283.088 142.659 275.17 130.775 265.176 120.733C255.182 110.69 243.306 102.686 230.229 97.1768C217.151 91.6679 203.126 88.7623 188.955 88.6258C174.785 88.4893 160.746 91.1246 147.64 96.3813C134.535 101.638 122.619 109.413 112.573 119.263C102.527 129.112 94.5483 140.843 89.0919 153.786C83.6355 166.729 80.8084 180.63 80.7721 194.696L71.2759 194.605Z" fill="#FFCF24"/>
<path d="M71.2759 194.605C71.3154 179.301 74.3913 164.176 80.3279 150.094C86.2644 136.012 94.9454 123.249 105.875 112.533C116.805 101.816 129.77 93.357 144.029 87.6377C158.288 81.9184 173.562 79.0512 188.98 79.1997C204.397 79.3482 219.656 82.5096 233.885 88.5033C248.114 94.4969 261.034 103.206 271.908 114.132C282.782 125.058 291.397 137.988 297.26 152.184C303.124 166.38 306.121 181.563 306.082 196.867L296.586 196.775C296.622 182.709 293.867 168.754 288.477 155.707C283.088 142.659 275.17 130.775 265.176 120.733C255.182 110.69 243.306 102.686 230.229 97.1768C217.151 91.6679 203.126 88.7623 188.955 88.6258C174.785 88.4893 160.746 91.1246 147.64 96.3813C134.535 101.638 122.619 109.413 112.573 119.263C102.527 129.112 94.5483 140.843 89.0919 153.786C83.6355 166.729 80.8084 180.63 80.7721 194.696L71.2759 194.605Z" fill="#FFCF24"/>
<path d="M71.2759 194.605C71.3154 179.301 74.3913 164.176 80.3279 150.094C86.2644 136.012 94.9454 123.249 105.875 112.533C116.805 101.816 129.77 93.357 144.029 87.6377C158.288 81.9184 173.562 79.0512 188.98 79.1997C204.397 79.3482 219.656 82.5096 233.885 88.5033C248.114 94.4969 261.034 103.206 271.908 114.132C282.782 125.058 291.397 137.988 297.26 152.184C303.124 166.38 306.121 181.563 306.082 196.867L296.586 196.775C296.622 182.709 293.867 168.754 288.477 155.707C283.088 142.659 275.17 130.775 265.176 120.733C255.182 110.69 243.306 102.686 230.229 97.1768C217.151 91.6679 203.126 88.7623 188.955 88.6258C174.785 88.4893 160.746 91.1246 147.64 96.3813C134.535 101.638 122.619 109.413 112.573 119.263C102.527 129.112 94.5483 140.843 89.0919 153.786C83.6355 166.729 80.8084 180.63 80.7721 194.696L71.2759 194.605Z" fill="#FFCF24"/>
<path d="M76.3273 194.815C76.3612 180.262 79.2807 165.881 84.919 152.491C90.5574 139.102 98.8042 126.967 109.189 116.779C119.573 106.591 131.892 98.5497 145.441 93.1144C158.991 87.6791 173.506 84.9562 188.158 85.101C202.81 85.2458 217.311 88.2555 230.835 93.9584C244.359 99.6613 256.639 107.946 266.976 118.338C277.312 128.731 285.502 141.029 291.078 154.529C296.654 168.029 299.506 182.468 299.472 197.021L290.448 196.931C290.479 183.556 287.857 170.285 282.732 157.877C277.608 145.468 270.08 134.165 260.58 124.613C251.079 115.061 239.792 107.447 227.362 102.205C214.932 96.9639 201.604 94.1976 188.137 94.0645C174.67 93.9313 161.329 96.4341 148.876 101.43C136.422 106.425 125.1 113.816 115.555 123.18C106.011 132.544 98.431 143.697 93.2487 156.004C88.0664 168.31 85.3831 181.529 85.3519 194.904L76.3273 194.815Z" fill="#FFCF24"/>
<path d="M76.3273 194.815C76.3612 180.262 79.2807 165.881 84.919 152.491C90.5574 139.102 98.8042 126.967 109.189 116.779C119.573 106.591 131.892 98.5497 145.441 93.1144C158.991 87.6791 173.506 84.9562 188.158 85.101C202.81 85.2458 217.311 88.2555 230.835 93.9584C244.359 99.6613 256.639 107.946 266.976 118.338C277.312 128.731 285.502 141.029 291.078 154.529C296.654 168.029 299.506 182.468 299.472 197.021L290.448 196.931C290.479 183.556 287.857 170.285 282.732 157.877C277.608 145.468 270.08 134.165 260.58 124.613C251.079 115.061 239.792 107.447 227.362 102.205C214.932 96.9639 201.604 94.1976 188.137 94.0645C174.67 93.9313 161.329 96.4341 148.876 101.43C136.422 106.425 125.1 113.816 115.555 123.18C106.011 132.544 98.431 143.697 93.2487 156.004C88.0664 168.31 85.3831 181.529 85.3519 194.904L76.3273 194.815Z" fill="#FFCF24"/>
<path d="M76.3273 194.815C76.3612 180.262 79.2807 165.881 84.919 152.491C90.5574 139.102 98.8042 126.967 109.189 116.779C119.573 106.591 131.892 98.5497 145.441 93.1144C158.991 87.6791 173.506 84.9562 188.158 85.101C202.81 85.2458 217.311 88.2555 230.835 93.9584C244.359 99.6613 256.639 107.946 266.976 118.338C277.312 128.731 285.502 141.029 291.078 154.529C296.654 168.029 299.506 182.468 299.472 197.021L290.448 196.931C290.479 183.556 287.857 170.285 282.732 157.877C277.608 145.468 270.08 134.165 260.58 124.613C251.079 115.061 239.792 107.447 227.362 102.205C214.932 96.9639 201.604 94.1976 188.137 94.0645C174.67 93.9313 161.329 96.4341 148.876 101.43C136.422 106.425 125.1 113.816 115.555 123.18C106.011 132.544 98.431 143.697 93.2487 156.004C88.0664 168.31 85.3831 181.529 85.3519 194.904L76.3273 194.815Z" fill="#0CCA40"/>
<path d="M76.3273 194.815C76.3612 180.262 79.2807 165.881 84.919 152.491C90.5574 139.102 98.8042 126.967 109.189 116.779C119.573 106.591 131.892 98.5497 145.441 93.1144C158.991 87.6791 173.506 84.9562 188.158 85.101C202.81 85.2458 217.311 88.2555 230.835 93.9584C244.359 99.6613 256.639 107.946 266.976 118.338C277.312 128.731 285.502 141.029 291.078 154.529C296.654 168.029 299.506 182.468 299.472 197.021L290.448 196.931C290.479 183.556 287.857 170.285 282.732 157.877C277.608 145.468 270.08 134.165 260.58 124.613C251.079 115.061 239.792 107.447 227.362 102.205C214.932 96.9639 201.604 94.1976 188.137 94.0645C174.67 93.9313 161.329 96.4341 148.876 101.43C136.422 106.425 125.1 113.816 115.555 123.18C106.011 132.544 98.431 143.697 93.2487 156.004C88.0664 168.31 85.3831 181.529 85.3519 194.904L76.3273 194.815Z" fill="#0CCA40"/>
<path d="M76.3273 194.815C76.3612 180.262 79.2807 165.881 84.919 152.491C90.5574 139.102 98.8042 126.967 109.189 116.779C119.573 106.591 131.892 98.5497 145.441 93.1144C158.991 87.6791 173.506 84.9562 188.158 85.101C202.81 85.2458 217.311 88.2555 230.835 93.9584C244.359 99.6613 256.639 107.946 266.976 118.338C277.312 128.731 285.502 141.029 291.078 154.529C296.654 168.029 299.506 182.468 299.472 197.021L290.448 196.931C290.479 183.556 287.857 170.285 282.732 157.877C277.608 145.468 270.08 134.165 260.58 124.613C251.079 115.061 239.792 107.447 227.362 102.205C214.932 96.9639 201.604 94.1976 188.137 94.0645C174.67 93.9313 161.329 96.4341 148.876 101.43C136.422 106.425 125.1 113.816 115.555 123.18C106.011 132.544 98.431 143.697 93.2487 156.004C88.0664 168.31 85.3831 181.529 85.3519 194.904L76.3273 194.815Z" fill="#0CCA40"/>
<path d="M76.3273 194.815C76.3612 180.262 79.2807 165.881 84.919 152.491C90.5574 139.102 98.8042 126.967 109.189 116.779C119.573 106.591 131.892 98.5497 145.441 93.1144C158.991 87.6791 173.506 84.9562 188.158 85.101C202.81 85.2458 217.311 88.2555 230.835 93.9584C244.359 99.6613 256.639 107.946 266.976 118.338C277.312 128.731 285.502 141.029 291.078 154.529C296.654 168.029 299.506 182.468 299.472 197.021L290.448 196.931C290.479 183.556 287.857 170.285 282.732 157.877C277.608 145.468 270.08 134.165 260.58 124.613C251.079 115.061 239.792 107.447 227.362 102.205C214.932 96.9639 201.604 94.1976 188.137 94.0645C174.67 93.9313 161.329 96.4341 148.876 101.43C136.422 106.425 125.1 113.816 115.555 123.18C106.011 132.544 98.431 143.697 93.2487 156.004C88.0664 168.31 85.3831 181.529 85.3519 194.904L76.3273 194.815Z" fill="#0CCA40"/>
<path d="M76.3273 194.815C76.3612 180.262 79.2807 165.881 84.919 152.491C90.5574 139.102 98.8042 126.967 109.189 116.779C119.573 106.591 131.892 98.5497 145.441 93.1144C158.991 87.6791 173.506 84.9562 188.158 85.101C202.81 85.2458 217.311 88.2555 230.835 93.9584C244.359 99.6613 256.639 107.946 266.976 118.338C277.312 128.731 285.502 141.029 291.078 154.529C296.654 168.029 299.506 182.468 299.472 197.021L290.448 196.931C290.479 183.556 287.857 170.285 282.732 157.877C277.608 145.468 270.08 134.165 260.58 124.613C251.079 115.061 239.792 107.447 227.362 102.205C214.932 96.9639 201.604 94.1976 188.137 94.0645C174.67 93.9313 161.329 96.4341 148.876 101.43C136.422 106.425 125.1 113.816 115.555 123.18C106.011 132.544 98.431 143.697 93.2487 156.004C88.0664 168.31 85.3831 181.529 85.3519 194.904L76.3273 194.815Z" fill="#0CCA40"/>
<path d="M82.8358 195.639C82.864 182.031 85.5889 168.584 90.8549 156.065C96.1208 143.546 103.825 132.2 113.527 122.676C123.229 113.152 134.739 105.635 147.4 100.556C160.061 95.4764 173.625 92.9335 187.317 93.0723C201.009 93.211 214.562 96.0287 227.202 101.365C239.841 106.7 251.319 114.45 260.981 124.17C270.643 133.891 278.3 145.392 283.514 158.017C288.727 170.643 291.396 184.145 291.368 197.753L282.935 197.667C282.96 185.16 280.507 172.75 275.715 161.146C270.923 149.542 263.886 138.971 255.006 130.036C246.125 121.102 235.575 113.98 223.958 109.075C212.341 104.171 199.885 101.581 187.3 101.454C174.715 101.326 162.248 103.664 150.611 108.332C138.974 113.001 128.395 119.909 119.478 128.663C110.561 137.417 103.48 147.845 98.6399 159.351C93.7999 170.858 91.2954 183.218 91.2694 195.725L82.8358 195.639Z" fill="#FFCF24"/>
<path d="M82.8358 195.639C82.864 182.031 85.5889 168.584 90.8549 156.065C96.1208 143.546 103.825 132.2 113.527 122.676C123.229 113.152 134.739 105.635 147.4 100.556C160.061 95.4764 173.625 92.9335 187.317 93.0723C201.009 93.211 214.562 96.0287 227.202 101.365C239.841 106.7 251.319 114.45 260.981 124.17C270.643 133.891 278.3 145.392 283.514 158.017C288.727 170.643 291.396 184.145 291.368 197.753L282.935 197.667C282.96 185.16 280.507 172.75 275.715 161.146C270.923 149.542 263.886 138.971 255.006 130.036C246.125 121.102 235.575 113.98 223.958 109.075C212.341 104.171 199.885 101.581 187.3 101.454C174.715 101.326 162.248 103.664 150.611 108.332C138.974 113.001 128.395 119.909 119.478 128.663C110.561 137.417 103.48 147.845 98.6399 159.351C93.7999 170.858 91.2954 183.218 91.2694 195.725L82.8358 195.639Z" fill="#FFCF24"/>
<path d="M82.8358 195.639C82.864 182.031 85.5889 168.584 90.8549 156.065C96.1208 143.546 103.825 132.2 113.527 122.676C123.229 113.152 134.739 105.635 147.4 100.556C160.061 95.4764 173.625 92.9335 187.317 93.0723C201.009 93.211 214.562 96.0287 227.202 101.365C239.841 106.7 251.319 114.45 260.981 124.17C270.643 133.891 278.3 145.392 283.514 158.017C288.727 170.643 291.396 184.145 291.368 197.753L282.935 197.667C282.96 185.16 280.507 172.75 275.715 161.146C270.923 149.542 263.886 138.971 255.006 130.036C246.125 121.102 235.575 113.98 223.958 109.075C212.341 104.171 199.885 101.581 187.3 101.454C174.715 101.326 162.248 103.664 150.611 108.332C138.974 113.001 128.395 119.909 119.478 128.663C110.561 137.417 103.48 147.845 98.6399 159.351C93.7999 170.858 91.2954 183.218 91.2694 195.725L82.8358 195.639Z" fill="#0CCA40"/>
<path d="M82.8358 195.639C82.864 182.031 85.5889 168.584 90.8549 156.065C96.1208 143.546 103.825 132.2 113.527 122.676C123.229 113.152 134.739 105.635 147.4 100.556C160.061 95.4764 173.625 92.9335 187.317 93.0723C201.009 93.211 214.562 96.0287 227.202 101.365C239.841 106.7 251.319 114.45 260.981 124.17C270.643 133.891 278.3 145.392 283.514 158.017C288.727 170.643 291.396 184.145 291.368 197.753L282.935 197.667C282.96 185.16 280.507 172.75 275.715 161.146C270.923 149.542 263.886 138.971 255.006 130.036C246.125 121.102 235.575 113.98 223.958 109.075C212.341 104.171 199.885 101.581 187.3 101.454C174.715 101.326 162.248 103.664 150.611 108.332C138.974 113.001 128.395 119.909 119.478 128.663C110.561 137.417 103.48 147.845 98.6399 159.351C93.7999 170.858 91.2954 183.218 91.2694 195.725L82.8358 195.639Z" fill="#0CCA40"/>
<path d="M82.8358 195.639C82.864 182.031 85.5889 168.584 90.8549 156.065C96.1208 143.546 103.825 132.2 113.527 122.676C123.229 113.152 134.739 105.635 147.4 100.556C160.061 95.4764 173.625 92.9335 187.317 93.0723C201.009 93.211 214.562 96.0287 227.202 101.365C239.841 106.7 251.319 114.45 260.981 124.17C270.643 133.891 278.3 145.392 283.514 158.017C288.727 170.643 291.396 184.145 291.368 197.753L282.935 197.667C282.96 185.16 280.507 172.75 275.715 161.146C270.923 149.542 263.886 138.971 255.006 130.036C246.125 121.102 235.575 113.98 223.958 109.075C212.341 104.171 199.885 101.581 187.3 101.454C174.715 101.326 162.248 103.664 150.611 108.332C138.974 113.001 128.395 119.909 119.478 128.663C110.561 137.417 103.48 147.845 98.6399 159.351C93.7999 170.858 91.2954 183.218 91.2694 195.725L82.8358 195.639Z" fill="#0CCA40"/>
<path d="M82.8358 195.639C82.864 182.031 85.5889 168.584 90.8549 156.065C96.1208 143.546 103.825 132.2 113.527 122.676C123.229 113.152 134.739 105.635 147.4 100.556C160.061 95.4764 173.625 92.9335 187.317 93.0723C201.009 93.211 214.562 96.0287 227.202 101.365C239.841 106.7 251.319 114.45 260.981 124.17C270.643 133.891 278.3 145.392 283.514 158.017C288.727 170.643 291.396 184.145 291.368 197.753L282.935 197.667C282.96 185.16 280.507 172.75 275.715 161.146C270.923 149.542 263.886 138.971 255.006 130.036C246.125 121.102 235.575 113.98 223.958 109.075C212.341 104.171 199.885 101.581 187.3 101.454C174.715 101.326 162.248 103.664 150.611 108.332C138.974 113.001 128.395 119.909 119.478 128.663C110.561 137.417 103.48 147.845 98.6399 159.351C93.7999 170.858 91.2954 183.218 91.2694 195.725L82.8358 195.639Z" fill="#0CCA40"/>
<path d="M82.8358 195.639C82.864 182.031 85.5889 168.584 90.8549 156.065C96.1208 143.546 103.825 132.2 113.527 122.676C123.229 113.152 134.739 105.635 147.4 100.556C160.061 95.4764 173.625 92.9335 187.317 93.0723C201.009 93.211 214.562 96.0287 227.202 101.365C239.841 106.7 251.319 114.45 260.981 124.17C270.643 133.891 278.3 145.392 283.514 158.017C288.727 170.643 291.396 184.145 291.368 197.753L282.935 197.667C282.96 185.16 280.507 172.75 275.715 161.146C270.923 149.542 263.886 138.971 255.006 130.036C246.125 121.102 235.575 113.98 223.958 109.075C212.341 104.171 199.885 101.581 187.3 101.454C174.715 101.326 162.248 103.664 150.611 108.332C138.974 113.001 128.395 119.909 119.478 128.663C110.561 137.417 103.48 147.845 98.6399 159.351C93.7999 170.858 91.2954 183.218 91.2694 195.725L82.8358 195.639Z" fill="#26D8F0"/>
<path d="M90.0549 196.335C90.1393 183.831 92.7292 171.464 97.6766 159.939C102.624 148.414 109.832 137.957 118.889 129.165C127.947 120.374 138.675 113.419 150.464 108.7C162.252 103.98 174.868 101.587 187.592 101.658C200.317 101.729 212.9 104.262 224.623 109.112C236.347 113.963 246.981 121.036 255.918 129.927C264.856 138.819 271.922 149.355 276.714 160.935C281.505 172.514 283.928 184.909 283.843 197.413L276.006 197.37C276.084 185.877 273.857 174.484 269.453 163.842C265.049 153.199 258.555 143.515 250.34 135.343C242.125 127.17 232.351 120.669 221.576 116.211C210.801 111.753 199.235 109.425 187.54 109.36C175.845 109.295 164.249 111.494 153.415 115.832C142.58 120.17 132.719 126.561 124.394 134.642C116.07 142.722 109.445 152.333 104.898 162.926C100.35 173.519 97.9698 184.886 97.8922 196.379L90.0549 196.335Z" fill="#FFCF24"/>
<path d="M90.0549 196.335C90.1393 183.831 92.7292 171.464 97.6766 159.939C102.624 148.414 109.832 137.957 118.889 129.165C127.947 120.374 138.675 113.419 150.464 108.7C162.252 103.98 174.868 101.587 187.592 101.658C200.317 101.729 212.9 104.262 224.623 109.112C236.347 113.963 246.981 121.036 255.918 129.927C264.856 138.819 271.922 149.355 276.714 160.935C281.505 172.514 283.928 184.909 283.843 197.413L276.006 197.37C276.084 185.877 273.857 174.484 269.453 163.842C265.049 153.199 258.555 143.515 250.34 135.343C242.125 127.17 232.351 120.669 221.576 116.211C210.801 111.753 199.235 109.425 187.54 109.36C175.845 109.295 164.249 111.494 153.415 115.832C142.58 120.17 132.719 126.561 124.394 134.642C116.07 142.722 109.445 152.333 104.898 162.926C100.35 173.519 97.9698 184.886 97.8922 196.379L90.0549 196.335Z" fill="#FFCF24"/>
<path d="M90.0549 196.335C90.1393 183.831 92.7292 171.464 97.6766 159.939C102.624 148.414 109.832 137.957 118.889 129.165C127.947 120.374 138.675 113.419 150.464 108.7C162.252 103.98 174.868 101.587 187.592 101.658C200.317 101.729 212.9 104.262 224.623 109.112C236.347 113.963 246.981 121.036 255.918 129.927C264.856 138.819 271.922 149.355 276.714 160.935C281.505 172.514 283.928 184.909 283.843 197.413L276.006 197.37C276.084 185.877 273.857 174.484 269.453 163.842C265.049 153.199 258.555 143.515 250.34 135.343C242.125 127.17 232.351 120.669 221.576 116.211C210.801 111.753 199.235 109.425 187.54 109.36C175.845 109.295 164.249 111.494 153.415 115.832C142.58 120.17 132.719 126.561 124.394 134.642C116.07 142.722 109.445 152.333 104.898 162.926C100.35 173.519 97.9698 184.886 97.8922 196.379L90.0549 196.335Z" fill="#0CCA40"/>
<path d="M90.0549 196.335C90.1393 183.831 92.7292 171.464 97.6766 159.939C102.624 148.414 109.832 137.957 118.889 129.165C127.947 120.374 138.675 113.419 150.464 108.7C162.252 103.98 174.868 101.587 187.592 101.658C200.317 101.729 212.9 104.262 224.623 109.112C236.347 113.963 246.981 121.036 255.918 129.927C264.856 138.819 271.922 149.355 276.714 160.935C281.505 172.514 283.928 184.909 283.843 197.413L276.006 197.37C276.084 185.877 273.857 174.484 269.453 163.842C265.049 153.199 258.555 143.515 250.34 135.343C242.125 127.17 232.351 120.669 221.576 116.211C210.801 111.753 199.235 109.425 187.54 109.36C175.845 109.295 164.249 111.494 153.415 115.832C142.58 120.17 132.719 126.561 124.394 134.642C116.07 142.722 109.445 152.333 104.898 162.926C100.35 173.519 97.9698 184.886 97.8922 196.379L90.0549 196.335Z" fill="#0CCA40"/>
<path d="M90.0549 196.335C90.1393 183.831 92.7292 171.464 97.6766 159.939C102.624 148.414 109.832 137.957 118.889 129.165C127.947 120.374 138.675 113.419 150.464 108.7C162.252 103.98 174.868 101.587 187.592 101.658C200.317 101.729 212.9 104.262 224.623 109.112C236.347 113.963 246.981 121.036 255.918 129.927C264.856 138.819 271.922 149.355 276.714 160.935C281.505 172.514 283.928 184.909 283.843 197.413L276.006 197.37C276.084 185.877 273.857 174.484 269.453 163.842C265.049 153.199 258.555 143.515 250.34 135.343C242.125 127.17 232.351 120.669 221.576 116.211C210.801 111.753 199.235 109.425 187.54 109.36C175.845 109.295 164.249 111.494 153.415 115.832C142.58 120.17 132.719 126.561 124.394 134.642C116.07 142.722 109.445 152.333 104.898 162.926C100.35 173.519 97.9698 184.886 97.8922 196.379L90.0549 196.335Z" fill="#0CCA40"/>
<path d="M90.0549 196.335C90.1393 183.831 92.7292 171.464 97.6766 159.939C102.624 148.414 109.832 137.957 118.889 129.165C127.947 120.374 138.675 113.419 150.464 108.7C162.252 103.98 174.868 101.587 187.592 101.658C200.317 101.729 212.9 104.262 224.623 109.112C236.347 113.963 246.981 121.036 255.918 129.927C264.856 138.819 271.922 149.355 276.714 160.935C281.505 172.514 283.928 184.909 283.843 197.413L276.006 197.37C276.084 185.877 273.857 174.484 269.453 163.842C265.049 153.199 258.555 143.515 250.34 135.343C242.125 127.17 232.351 120.669 221.576 116.211C210.801 111.753 199.235 109.425 187.54 109.36C175.845 109.295 164.249 111.494 153.415 115.832C142.58 120.17 132.719 126.561 124.394 134.642C116.07 142.722 109.445 152.333 104.898 162.926C100.35 173.519 97.9698 184.886 97.8922 196.379L90.0549 196.335Z" fill="#0CCA40"/>
<path d="M90.0549 196.335C90.1393 183.831 92.7292 171.464 97.6766 159.939C102.624 148.414 109.832 137.957 118.889 129.165C127.947 120.374 138.675 113.419 150.464 108.7C162.252 103.98 174.868 101.587 187.592 101.658C200.317 101.729 212.9 104.262 224.623 109.112C236.347 113.963 246.981 121.036 255.918 129.927C264.856 138.819 271.922 149.355 276.714 160.935C281.505 172.514 283.928 184.909 283.843 197.413L276.006 197.37C276.084 185.877 273.857 174.484 269.453 163.842C265.049 153.199 258.555 143.515 250.34 135.343C242.125 127.17 232.351 120.669 221.576 116.211C210.801 111.753 199.235 109.425 187.54 109.36C175.845 109.295 164.249 111.494 153.415 115.832C142.58 120.17 132.719 126.561 124.394 134.642C116.07 142.722 109.445 152.333 104.898 162.926C100.35 173.519 97.9698 184.886 97.8922 196.379L90.0549 196.335Z" fill="#4285F4"/>
<path d="M90.0549 196.335C90.1393 183.831 92.7292 171.464 97.6766 159.939C102.624 148.414 109.832 137.957 118.889 129.165C127.947 120.374 138.675 113.419 150.464 108.7C162.252 103.98 174.868 101.587 187.592 101.658C200.317 101.729 212.9 104.262 224.623 109.112C236.347 113.963 246.981 121.036 255.918 129.927C264.856 138.819 271.922 149.355 276.714 160.935C281.505 172.514 283.928 184.909 283.843 197.413L276.006 197.37C276.084 185.877 273.857 174.484 269.453 163.842C265.049 153.199 258.555 143.515 250.34 135.343C242.125 127.17 232.351 120.669 221.576 116.211C210.801 111.753 199.235 109.425 187.54 109.36C175.845 109.295 164.249 111.494 153.415 115.832C142.58 120.17 132.719 126.561 124.394 134.642C116.07 142.722 109.445 152.333 104.898 162.926C100.35 173.519 97.9698 184.886 97.8922 196.379L90.0549 196.335Z" fill="#4285F4"/>
<path d="M97.6811 195.04C97.7318 183.409 100.1 171.911 104.65 161.201C109.2 150.491 115.843 140.78 124.2 132.621C132.556 124.463 142.463 118.017 153.354 113.652C164.246 109.287 175.908 107.088 187.676 107.181C199.443 107.274 211.085 109.657 221.938 114.193C232.79 118.73 242.64 125.332 250.925 133.621C259.21 141.911 265.768 151.727 270.225 162.508C274.681 173.288 276.949 184.824 276.898 196.454L269.65 196.397C269.697 185.707 267.612 175.105 263.516 165.196C259.421 155.287 253.393 146.266 245.778 138.646C238.163 131.027 229.11 124.959 219.135 120.79C209.161 116.62 198.46 114.43 187.644 114.345C176.829 114.259 166.11 116.28 156.099 120.292C146.089 124.304 136.984 130.229 129.303 137.727C121.622 145.226 115.516 154.152 111.334 163.995C107.152 173.839 104.976 184.407 104.929 195.097L97.6811 195.04Z" fill="#FFCF24"/>
<path d="M97.6811 195.04C97.7318 183.409 100.1 171.911 104.65 161.201C109.2 150.491 115.843 140.78 124.2 132.621C132.556 124.463 142.463 118.017 153.354 113.652C164.246 109.287 175.908 107.088 187.676 107.181C199.443 107.274 211.085 109.657 221.938 114.193C232.79 118.73 242.64 125.332 250.925 133.621C259.21 141.911 265.768 151.727 270.225 162.508C274.681 173.288 276.949 184.824 276.898 196.454L269.65 196.397C269.697 185.707 267.612 175.105 263.516 165.196C259.421 155.287 253.393 146.266 245.778 138.646C238.163 131.027 229.11 124.959 219.135 120.79C209.161 116.62 198.46 114.43 187.644 114.345C176.829 114.259 166.11 116.28 156.099 120.292C146.089 124.304 136.984 130.229 129.303 137.727C121.622 145.226 115.516 154.152 111.334 163.995C107.152 173.839 104.976 184.407 104.929 195.097L97.6811 195.04Z" fill="#FFCF24"/>
<path d="M97.6811 195.04C97.7318 183.409 100.1 171.911 104.65 161.201C109.2 150.491 115.843 140.78 124.2 132.621C132.556 124.463 142.463 118.017 153.354 113.652C164.246 109.287 175.908 107.088 187.676 107.181C199.443 107.274 211.085 109.657 221.938 114.193C232.79 118.73 242.64 125.332 250.925 133.621C259.21 141.911 265.768 151.727 270.225 162.508C274.681 173.288 276.949 184.824 276.898 196.454L269.65 196.397C269.697 185.707 267.612 175.105 263.516 165.196C259.421 155.287 253.393 146.266 245.778 138.646C238.163 131.027 229.11 124.959 219.135 120.79C209.161 116.62 198.46 114.43 187.644 114.345C176.829 114.259 166.11 116.28 156.099 120.292C146.089 124.304 136.984 130.229 129.303 137.727C121.622 145.226 115.516 154.152 111.334 163.995C107.152 173.839 104.976 184.407 104.929 195.097L97.6811 195.04Z" fill="#0CCA40"/>
<path d="M97.6811 195.04C97.7318 183.409 100.1 171.911 104.65 161.201C109.2 150.491 115.843 140.78 124.2 132.621C132.556 124.463 142.463 118.017 153.354 113.652C164.246 109.287 175.908 107.088 187.676 107.181C199.443 107.274 211.085 109.657 221.938 114.193C232.79 118.73 242.64 125.332 250.925 133.621C259.21 141.911 265.768 151.727 270.225 162.508C274.681 173.288 276.949 184.824 276.898 196.454L269.65 196.397C269.697 185.707 267.612 175.105 263.516 165.196C259.421 155.287 253.393 146.266 245.778 138.646C238.163 131.027 229.11 124.959 219.135 120.79C209.161 116.62 198.46 114.43 187.644 114.345C176.829 114.259 166.11 116.28 156.099 120.292C146.089 124.304 136.984 130.229 129.303 137.727C121.622 145.226 115.516 154.152 111.334 163.995C107.152 173.839 104.976 184.407 104.929 195.097L97.6811 195.04Z" fill="#0CCA40"/>
<path d="M97.6811 195.04C97.7318 183.409 100.1 171.911 104.65 161.201C109.2 150.491 115.843 140.78 124.2 132.621C132.556 124.463 142.463 118.017 153.354 113.652C164.246 109.287 175.908 107.088 187.676 107.181C199.443 107.274 211.085 109.657 221.938 114.193C232.79 118.73 242.64 125.332 250.925 133.621C259.21 141.911 265.768 151.727 270.225 162.508C274.681 173.288 276.949 184.824 276.898 196.454L269.65 196.397C269.697 185.707 267.612 175.105 263.516 165.196C259.421 155.287 253.393 146.266 245.778 138.646C238.163 131.027 229.11 124.959 219.135 120.79C209.161 116.62 198.46 114.43 187.644 114.345C176.829 114.259 166.11 116.28 156.099 120.292C146.089 124.304 136.984 130.229 129.303 137.727C121.622 145.226 115.516 154.152 111.334 163.995C107.152 173.839 104.976 184.407 104.929 195.097L97.6811 195.04Z" fill="#0CCA40"/>
<path d="M97.6811 195.04C97.7318 183.409 100.1 171.911 104.65 161.201C109.2 150.491 115.843 140.78 124.2 132.621C132.556 124.463 142.463 118.017 153.354 113.652C164.246 109.287 175.908 107.088 187.676 107.181C199.443 107.274 211.085 109.657 221.938 114.193C232.79 118.73 242.64 125.332 250.925 133.621C259.21 141.911 265.768 151.727 270.225 162.508C274.681 173.288 276.949 184.824 276.898 196.454L269.65 196.397C269.697 185.707 267.612 175.105 263.516 165.196C259.421 155.287 253.393 146.266 245.778 138.646C238.163 131.027 229.11 124.959 219.135 120.79C209.161 116.62 198.46 114.43 187.644 114.345C176.829 114.259 166.11 116.28 156.099 120.292C146.089 124.304 136.984 130.229 129.303 137.727C121.622 145.226 115.516 154.152 111.334 163.995C107.152 173.839 104.976 184.407 104.929 195.097L97.6811 195.04Z" fill="#0CCA40"/>
<path d="M97.6811 195.04C97.7318 183.409 100.1 171.911 104.65 161.201C109.2 150.491 115.843 140.78 124.2 132.621C132.556 124.463 142.463 118.017 153.354 113.652C164.246 109.287 175.908 107.088 187.676 107.181C199.443 107.274 211.085 109.657 221.938 114.193C232.79 118.73 242.64 125.332 250.925 133.621C259.21 141.911 265.768 151.727 270.225 162.508C274.681 173.288 276.949 184.824 276.898 196.454L269.65 196.397C269.697 185.707 267.612 175.105 263.516 165.196C259.421 155.287 253.393 146.266 245.778 138.646C238.163 131.027 229.11 124.959 219.135 120.79C209.161 116.62 198.46 114.43 187.644 114.345C176.829 114.259 166.11 116.28 156.099 120.292C146.089 124.304 136.984 130.229 129.303 137.727C121.622 145.226 115.516 154.152 111.334 163.995C107.152 173.839 104.976 184.407 104.929 195.097L97.6811 195.04Z" fill="#4285F4"/>
<path d="M97.6811 195.04C97.7318 183.409 100.1 171.911 104.65 161.201C109.2 150.491 115.843 140.78 124.2 132.621C132.556 124.463 142.463 118.017 153.354 113.652C164.246 109.287 175.908 107.088 187.676 107.181C199.443 107.274 211.085 109.657 221.938 114.193C232.79 118.73 242.64 125.332 250.925 133.621C259.21 141.911 265.768 151.727 270.225 162.508C274.681 173.288 276.949 184.824 276.898 196.454L269.65 196.397C269.697 185.707 267.612 175.105 263.516 165.196C259.421 155.287 253.393 146.266 245.778 138.646C238.163 131.027 229.11 124.959 219.135 120.79C209.161 116.62 198.46 114.43 187.644 114.345C176.829 114.259 166.11 116.28 156.099 120.292C146.089 124.304 136.984 130.229 129.303 137.727C121.622 145.226 115.516 154.152 111.334 163.995C107.152 173.839 104.976 184.407 104.929 195.097L97.6811 195.04Z" fill="#8411AC"/>
<path d="M339 82.5C339 94.9264 328.926 105 316.5 105C304.074 105 294 94.9264 294 82.5C294 70.0736 304.074 60 316.5 60C328.926 60 339 70.0736 339 82.5Z" fill="url(#paint1_linear_353_743)"/>
<path d="M214.133 261.873C220.782 273.852 222.853 330.65 117.692 287.12C50.2471 286.506 32.4898 244.959 45.5342 220.359C42.2711 202.289 54.0119 179.875 76.5281 173.121C84.0359 164.374 136.698 172.561 153.385 191.338C192.28 172.745 252.011 246.454 214.133 261.873Z" fill="url(#paint2_linear_353_743)"/>
<path d="M345.382 196.794C351.759 202.122 359.274 222.618 297.555 226.5C265.296 245.484 245.579 185.018 243.5 171.617C237.101 161.637 247.193 193.21 256.096 182.669C257.322 175.23 284.578 165.063 297.555 171.617C311.077 149.224 359.271 176.61 345.382 196.794Z" fill="url(#paint3_linear_353_743)"/>
<path d="M332.209 225.896C345.799 261.765 415.639 281.611 255.878 329.084C176.833 386.882 105.074 371.894 91.4846 336.024C72.1884 320.748 89.7674 276.803 110.189 250.537C99.8593 211.926 168.325 196.488 203.856 200.845C233.192 148.534 363.083 177.644 332.209 225.896Z" fill="url(#paint4_linear_353_743)"/>
<path d="M128.426 163.701C128.325 158.179 132.719 153.627 138.241 153.533L237.818 151.849C243.34 151.756 247.898 156.156 248 161.678L251.573 356.299C251.674 361.821 247.28 366.373 241.758 366.467L142.181 368.151C136.659 368.244 132.101 363.843 131.999 358.322L128.426 163.701Z" fill="#FFF27D"/>
<rect width="108.347" height="193.771" rx="10" transform="matrix(0.999986 -0.00529709 0.00574964 0.999983 135.146 170.26)" fill="url(#paint5_linear_353_743)"/>
<rect width="47.2453" height="5.40885" rx="2.70442" transform="matrix(0.999865 -0.0164409 0.0178451 0.999841 165.699 158.313)" fill="white"/>
<circle cx="190" cy="259" r="24" fill="#9C27B0"/>
<g clip-path="url(#clip0_353_743)">
<path d="M182.017 269.3L179.956 257.963L185.464 262.97L185.921 263.386L186.232 262.852L190 256.392L193.768 262.852L194.08 263.386L194.537 262.97L200.044 257.963L197.983 269.3H182.017ZM197.9 273.4C197.9 273.647 197.82 273.813 197.717 273.917C197.613 274.02 197.447 274.1 197.2 274.1H182.8C182.554 274.1 182.387 274.02 182.284 273.917C182.18 273.813 182.1 273.647 182.1 273.4V272.7H197.9V273.4Z" fill="#FFC01E" stroke="white"/>
</g>
<path d="M220 259C220 275.569 206.569 289 190 289C173.431 289 160 275.569 160 259C160 242.431 173.431 229 190 229C206.569 229 220 242.431 220 259ZM162.245 259C162.245 274.328 174.672 286.755 190 286.755C205.328 286.755 217.755 274.328 217.755 259C217.755 243.672 205.328 231.245 190 231.245C174.672 231.245 162.245 243.672 162.245 259Z" fill="#FFC01E"/>
<path d="M184.937 245.582L186.451 250.161H186.511L188.022 245.582H189.181L187.13 251.4H185.829L183.78 245.582H184.937ZM191.001 245.582V251.4H189.947V245.582H191.001ZM192.143 251.4V245.582H194.325C194.771 245.582 195.146 245.665 195.45 245.832C195.754 245.998 195.985 246.228 196.14 246.519C196.297 246.809 196.376 247.139 196.376 247.508C196.376 247.881 196.297 248.212 196.14 248.502C195.983 248.792 195.751 249.02 195.444 249.187C195.137 249.352 194.759 249.434 194.31 249.434H192.864V248.568H194.168C194.43 248.568 194.644 248.522 194.81 248.431C194.977 248.34 195.1 248.215 195.18 248.056C195.261 247.897 195.302 247.714 195.302 247.508C195.302 247.301 195.261 247.12 195.18 246.962C195.1 246.805 194.976 246.683 194.807 246.596C194.641 246.507 194.426 246.462 194.163 246.462H193.197V251.4H192.143Z" fill="#FFF27D"/>
<path d="M101.046 324.136L89.7189 330.931L88.981 342.919L82.6123 333.034L69.6387 333.432L80.9656 326.637L81.7036 314.648L88.0722 324.533L101.046 324.136Z" fill="#FFCF24"/>
<path d="M313.792 91V88.3333L310 85.2222V78.5556H312.167V75H314.333V78.5556H318.667V75H320.833V78.5556H323V85.2222L319.208 88.3333V91H313.792Z" fill="white"/>
<ellipse cx="308.944" cy="380.095" rx="16.2189" ry="15.325" transform="rotate(-2.78503 308.944 380.095)" fill="url(#paint6_linear_353_743)"/>
<ellipse cx="68.5" cy="301.085" rx="24.4149" ry="22.9253" transform="rotate(-2.78503 68.5 301.085)" fill="url(#paint7_linear_353_743)"/>
<ellipse cx="309.5" cy="297.5" rx="22.5" ry="20.5" fill="url(#paint8_linear_353_743)"/>
<path d="M313.5 299C313.067 299 312.708 298.858 312.425 298.575C312.142 298.292 312 297.933 312 297.5C312 297.067 312.142 296.708 312.425 296.425C312.708 296.142 313.067 296 313.5 296C313.933 296 314.292 296.142 314.575 296.425C314.858 296.708 315 297.067 315 297.5C315 297.933 314.858 298.292 314.575 298.575C314.292 298.858 313.933 299 313.5 299ZM301 300V292H309V294H303V300H301ZM301 310V302H303V308H309V310H301ZM317 300V294H311V292H319V300H317ZM311 310V308H317V302H319V310H311ZM304 306L307 302L309.25 305L312.25 301L316 306H304Z" fill="white"/>
<circle cx="77.5" cy="224.5" r="22.5" fill="url(#paint9_linear_353_743)"/>
<path d="M138.781 367.876C138.284 367.86 137.852 368.212 137.768 368.702L117.179 488.458C117.082 489.024 117.481 489.557 118.052 489.624L192.903 498.489C192.968 498.496 193.032 498.498 193.097 498.493L251.992 494.016C252.214 494 252.423 493.909 252.587 493.76L293.132 456.86C293.469 456.552 293.554 456.055 293.338 455.651L246.2 367.442C246.025 367.115 245.684 366.911 245.314 366.911L239.916 366.91L232.915 366.91L220.915 366.91L212.915 366.91L170.341 367.849L151.915 368.29L138.781 367.876Z" fill="url(#paint10_linear_353_743)"/>
<rect x="170.458" y="379" width="0.837443" height="17.3853" rx="0.418721" transform="rotate(1.50957 170.458 379)" fill="#2B44FF" fill-opacity="0.4"/>
<rect x="196" y="389.036" width="0.837443" height="17.3853" rx="0.418721" transform="rotate(-2.43465 196 389.036)" fill="#2B44FF" fill-opacity="0.4"/>
<rect x="185" y="435.036" width="0.837443" height="7.32433" rx="0.418721" transform="rotate(-2.43465 185 435.036)" fill="#2B44FF" fill-opacity="0.4"/>
<rect x="219" y="380.167" width="0.837443" height="8.23178" rx="0.418721" transform="rotate(-11.5402 219 380.167)" fill="#2B44FF" fill-opacity="0.4"/>
<rect x="245" y="408.247" width="0.837443" height="8.73235" rx="0.418721" transform="rotate(-17.1241 245 408.247)" fill="#2B44FF" fill-opacity="0.4"/>
<rect x="151.354" y="388" width="0.837443" height="17.3853" rx="0.418721" transform="rotate(11.1219 151.354 388)" fill="#2B44FF" fill-opacity="0.4"/>
<path d="M77 231C78.3833 231 79.5627 230.513 80.538 229.538C81.5127 228.563 82 227.383 82 226C82 224.617 81.5127 223.437 80.538 222.462C79.5627 221.487 78.3833 221 77 221C75.6167 221 74.4377 221.487 73.463 222.462C72.4877 223.437 72 224.617 72 226C72 227.383 72.4877 228.563 73.463 229.538C74.4377 230.513 75.6167 231 77 231ZM77 229C76.1667 229 75.4583 228.708 74.875 228.125C74.2917 227.542 74 226.833 74 226C74 225.167 74.2917 224.458 74.875 223.875C75.4583 223.292 76.1667 223 77 223C77.8333 223 78.5417 223.292 79.125 223.875C79.7083 224.458 80 225.167 80 226C80 226.833 79.7083 227.542 79.125 228.125C78.5417 228.708 77.8333 229 77 229ZM83 223C83.2833 223 83.5207 222.904 83.712 222.712C83.904 222.521 84 222.283 84 222C84 221.717 83.904 221.479 83.712 221.287C83.5207 221.096 83.2833 221 83 221C82.7167 221 82.4793 221.096 82.288 221.287C82.096 221.479 82 221.717 82 222C82 222.283 82.096 222.521 82.288 222.712C82.4793 222.904 82.7167 223 83 223ZM69 234C68.45 234 67.9793 233.804 67.588 233.413C67.196 233.021 67 232.55 67 232V220C67 219.45 67.196 218.979 67.588 218.588C67.9793 218.196 68.45 218 69 218H72.15L73.7 216.325C73.8 216.225 73.9123 216.146 74.037 216.087C74.1623 216.029 74.2917 216 74.425 216H79.575C79.7083 216 79.8377 216.029 79.963 216.087C80.0877 216.146 80.2 216.225 80.3 216.325L81.85 218H85C85.55 218 86.021 218.196 86.413 218.588C86.8043 218.979 87 219.45 87 220V232C87 232.55 86.8043 233.021 86.413 233.413C86.021 233.804 85.55 234 85 234H69ZM85 232V220H80.95L79.125 218H74.875L73.05 220H69V232H85Z" fill="white"/>
<defs>
<linearGradient id="paint0_linear_353_743" x1="345.252" y1="-7.64571" x2="408.322" y2="158.827" gradientUnits="userSpaceOnUse">
<stop stop-color="#898AF3"/>
<stop offset="1" stop-color="#C082FF" stop-opacity="0"/>
</linearGradient>
<linearGradient id="paint1_linear_353_743" x1="436.5" y1="-146.5" x2="436.5" y2="-101.5" gradientUnits="userSpaceOnUse">
<stop offset="0.583333" stop-color="#5B7FFF" stop-opacity="0.42"/>
<stop offset="1" stop-color="#6C22FF" stop-opacity="0.13"/>
</linearGradient>
<linearGradient id="paint2_linear_353_743" x1="296.257" y1="235.954" x2="263.727" y2="337.496" gradientUnits="userSpaceOnUse">
<stop stop-color="white"/>
<stop offset="1" stop-color="#C082FF"/>
</linearGradient>
<linearGradient id="paint3_linear_353_743" x1="377.51" y1="157.569" x2="389.266" y2="228.245" gradientUnits="userSpaceOnUse">
<stop stop-color="white"/>
<stop offset="1" stop-color="#C082FF"/>
</linearGradient>
<linearGradient id="paint4_linear_353_743" x1="416.384" y1="128.451" x2="465.596" y2="258.345" gradientUnits="userSpaceOnUse">
<stop stop-color="#898AF3"/>
<stop offset="1" stop-color="#C082FF" stop-opacity="0"/>
</linearGradient>
<linearGradient id="paint5_linear_353_743" x1="-1.77211e-07" y1="101.435" x2="108.345" y2="99.9482" gradientUnits="userSpaceOnUse">
<stop stop-color="#1F28CF"/>
<stop offset="1" stop-color="#7D3DAF"/>
</linearGradient>
<linearGradient id="paint6_linear_353_743" x1="308.944" y1="364.77" x2="308.944" y2="395.42" gradientUnits="userSpaceOnUse">
<stop offset="0.583333" stop-color="#5B7FFF" stop-opacity="0.12"/>
<stop offset="1" stop-color="#6C22FF" stop-opacity="0.13"/>
</linearGradient>
<linearGradient id="paint7_linear_353_743" x1="68.5" y1="278.159" x2="68.5" y2="324.01" gradientUnits="userSpaceOnUse">
<stop offset="0.583333" stop-color="#5B7FFF" stop-opacity="0.12"/>
<stop offset="1" stop-color="#6C22FF" stop-opacity="0.13"/>
</linearGradient>
<linearGradient id="paint8_linear_353_743" x1="309.5" y1="277" x2="309.5" y2="318" gradientUnits="userSpaceOnUse">
<stop offset="0.583333" stop-color="#5B7FFF" stop-opacity="0.42"/>
<stop offset="1" stop-color="#6C22FF" stop-opacity="0.13"/>
</linearGradient>
<linearGradient id="paint9_linear_353_743" x1="77.5" y1="202" x2="77.5" y2="247" gradientUnits="userSpaceOnUse">
<stop offset="0.583333" stop-color="#5B7FFF" stop-opacity="0.42"/>
<stop offset="1" stop-color="#6C22FF" stop-opacity="0.13"/>
</linearGradient>
<linearGradient id="paint10_linear_353_743" x1="216.237" y1="367.026" x2="217.409" y2="490.678" gradientUnits="userSpaceOnUse">
<stop stop-color="#22D7FF" stop-opacity="0.65"/>
<stop offset="0.0001" stop-color="#2295FF" stop-opacity="0.65"/>
<stop offset="1" stop-color="#A6F3EF" stop-opacity="0"/>
</linearGradient>
<clipPath id="clip0_353_743">
<rect width="28.8" height="28.8" fill="white" transform="translate(175.6 245.8)"/>
</clipPath>
</defs>
</svg>
