<svg width="349" height="344" viewBox="0 0 349 344" fill="none" xmlns="http://www.w3.org/2000/svg">
<path d="M37.6636 170.858C37.7741 153.178 41.4229 135.693 48.4017 119.4C55.3805 103.108 65.5525 88.3276 78.3371 75.903C91.1217 63.4783 106.268 53.6528 122.912 46.9875C139.557 40.3222 157.372 36.9476 175.342 37.0563C193.311 37.165 211.083 40.755 227.643 47.6212C244.202 54.4875 259.225 64.4955 271.853 77.0739C284.481 89.6523 294.468 104.555 301.242 120.93C308.017 137.306 311.447 154.834 311.336 172.514L300.268 172.447C300.37 156.197 297.217 140.087 290.991 125.036C284.764 109.985 275.585 96.2876 263.979 84.7266C252.372 73.1656 238.564 63.9671 223.344 57.6563C208.124 51.3454 191.79 48.0458 175.273 47.9459C158.757 47.8459 142.383 50.9476 127.085 57.0738C111.787 63.2 97.8658 72.2307 86.1153 83.6504C74.3648 95.0701 65.0155 108.655 58.6012 123.63C52.1869 138.604 48.8333 154.675 48.7317 170.925L37.6636 170.858Z" fill="#F24E1E"/>
<path d="M46.4026 171.38C46.5548 154.965 50.0156 138.72 56.5874 123.575C63.1592 108.429 72.7134 94.6787 84.7043 83.1087C96.6952 71.5386 110.888 62.3754 126.473 56.1424C142.057 49.9093 158.728 46.7284 175.534 46.7813C192.339 46.8342 208.95 50.1199 224.418 56.4507C239.886 62.7815 253.909 72.0334 265.684 83.6783C277.46 95.3232 286.759 109.133 293.049 124.319C299.34 139.505 302.499 155.77 302.347 172.186L291.996 172.153C292.136 157.066 289.232 142.116 283.45 128.158C277.668 114.2 269.122 101.508 258.299 90.8047C247.475 80.1017 234.587 71.5981 220.371 65.7794C206.154 59.9607 190.886 56.9408 175.44 56.8922C159.994 56.8436 144.671 59.7671 130.347 65.496C116.023 71.2249 102.978 79.6469 91.9573 90.2811C80.9363 100.915 72.1549 113.554 66.1147 127.474C60.0744 141.395 56.8936 156.325 56.7537 171.413L46.4026 171.38Z" fill="#FF7324"/>
<path d="M57.2759 170.605C57.3154 155.301 60.3913 140.176 66.3279 126.094C72.2644 112.013 80.9454 99.249 91.8753 88.5326C102.805 77.8163 115.77 69.357 130.029 63.6377C144.288 57.9184 159.562 55.0512 174.98 55.1997C190.397 55.3482 205.656 58.5096 219.885 64.5033C234.114 70.4969 247.034 79.2056 257.908 90.132C268.782 101.058 277.397 113.988 283.26 128.184C289.124 142.38 292.121 157.563 292.082 172.867L282.585 172.775C282.622 158.709 279.867 144.754 274.477 131.707C269.088 118.659 261.17 106.775 251.176 96.7325C241.182 86.6899 229.306 78.6857 216.229 73.1768C203.151 67.6679 189.126 64.7623 174.955 64.6258C160.785 64.4893 146.746 67.1246 133.64 72.3813C120.535 77.6379 108.619 85.413 98.5729 95.2626C88.5271 105.112 80.5483 116.843 75.0919 129.786C69.6355 142.729 66.8084 156.63 66.7721 170.696L57.2759 170.605Z" fill="#FFCF24"/>
<path d="M57.2759 170.605C57.3154 155.301 60.3913 140.176 66.3279 126.094C72.2644 112.013 80.9454 99.249 91.8753 88.5326C102.805 77.8163 115.77 69.357 130.029 63.6377C144.288 57.9184 159.562 55.0512 174.98 55.1997C190.397 55.3482 205.656 58.5096 219.885 64.5033C234.114 70.4969 247.034 79.2056 257.908 90.132C268.782 101.058 277.397 113.988 283.26 128.184C289.124 142.38 292.121 157.563 292.082 172.867L282.585 172.775C282.622 158.709 279.867 144.754 274.477 131.707C269.088 118.659 261.17 106.775 251.176 96.7325C241.182 86.6899 229.306 78.6857 216.229 73.1768C203.151 67.6679 189.126 64.7623 174.955 64.6258C160.785 64.4893 146.746 67.1246 133.64 72.3813C120.535 77.6379 108.619 85.413 98.5729 95.2626C88.5271 105.112 80.5483 116.843 75.0919 129.786C69.6355 142.729 66.8084 156.63 66.7721 170.696L57.2759 170.605Z" fill="#FFCF24"/>
<path d="M57.2759 170.605C57.3154 155.301 60.3913 140.176 66.3279 126.094C72.2644 112.013 80.9454 99.249 91.8753 88.5326C102.805 77.8163 115.77 69.357 130.029 63.6377C144.288 57.9184 159.562 55.0512 174.98 55.1997C190.397 55.3482 205.656 58.5096 219.885 64.5033C234.114 70.4969 247.034 79.2056 257.908 90.132C268.782 101.058 277.397 113.988 283.26 128.184C289.124 142.38 292.121 157.563 292.082 172.867L282.585 172.775C282.622 158.709 279.867 144.754 274.477 131.707C269.088 118.659 261.17 106.775 251.176 96.7325C241.182 86.6899 229.306 78.6857 216.229 73.1768C203.151 67.6679 189.126 64.7623 174.955 64.6258C160.785 64.4893 146.746 67.1246 133.64 72.3813C120.535 77.6379 108.619 85.413 98.5729 95.2626C88.5271 105.112 80.5483 116.843 75.0919 129.786C69.6355 142.729 66.8084 156.63 66.7721 170.696L57.2759 170.605Z" fill="#FFCF24"/>
<path d="M62.3273 170.815C62.3612 156.262 65.2807 141.881 70.919 128.491C76.5574 115.102 84.8042 102.967 95.1886 92.7787C105.573 82.5908 117.892 74.5497 131.441 69.1144C144.991 63.6791 159.506 60.9562 174.158 61.101C188.81 61.2458 203.311 64.2556 216.835 69.9584C230.359 75.6613 242.639 83.9456 252.976 94.3383C263.312 104.731 271.502 117.029 277.078 130.529C282.654 144.029 285.506 158.468 285.472 173.021L276.448 172.931C276.479 159.556 273.857 146.285 268.732 133.877C263.608 121.468 256.08 110.165 246.58 100.613C237.079 91.0613 225.792 83.447 213.362 78.2055C200.932 72.9639 187.604 70.1976 174.137 70.0645C160.67 69.9314 147.329 72.4341 134.876 77.4297C122.422 82.4254 111.1 89.8161 101.555 99.1799C92.0107 108.544 84.431 119.697 79.2487 132.004C74.0664 144.31 71.3831 157.529 71.3519 170.904L62.3273 170.815Z" fill="#FFCF24"/>
<path d="M62.3273 170.815C62.3612 156.262 65.2807 141.881 70.919 128.491C76.5574 115.102 84.8042 102.967 95.1886 92.7787C105.573 82.5908 117.892 74.5497 131.441 69.1144C144.991 63.6791 159.506 60.9562 174.158 61.101C188.81 61.2458 203.311 64.2556 216.835 69.9584C230.359 75.6613 242.639 83.9456 252.976 94.3383C263.312 104.731 271.502 117.029 277.078 130.529C282.654 144.029 285.506 158.468 285.472 173.021L276.448 172.931C276.479 159.556 273.857 146.285 268.732 133.877C263.608 121.468 256.08 110.165 246.58 100.613C237.079 91.0613 225.792 83.447 213.362 78.2055C200.932 72.9639 187.604 70.1976 174.137 70.0645C160.67 69.9314 147.329 72.4341 134.876 77.4297C122.422 82.4254 111.1 89.8161 101.555 99.1799C92.0107 108.544 84.431 119.697 79.2487 132.004C74.0664 144.31 71.3831 157.529 71.3519 170.904L62.3273 170.815Z" fill="#FFCF24"/>
<path d="M62.3273 170.815C62.3612 156.262 65.2807 141.881 70.919 128.491C76.5574 115.102 84.8042 102.967 95.1886 92.7787C105.573 82.5908 117.892 74.5497 131.441 69.1144C144.991 63.6791 159.506 60.9562 174.158 61.101C188.81 61.2458 203.311 64.2556 216.835 69.9584C230.359 75.6613 242.639 83.9456 252.976 94.3383C263.312 104.731 271.502 117.029 277.078 130.529C282.654 144.029 285.506 158.468 285.472 173.021L276.448 172.931C276.479 159.556 273.857 146.285 268.732 133.877C263.608 121.468 256.08 110.165 246.58 100.613C237.079 91.0613 225.792 83.447 213.362 78.2055C200.932 72.9639 187.604 70.1976 174.137 70.0645C160.67 69.9314 147.329 72.4341 134.876 77.4297C122.422 82.4254 111.1 89.8161 101.555 99.1799C92.0107 108.544 84.431 119.697 79.2487 132.004C74.0664 144.31 71.3831 157.529 71.3519 170.904L62.3273 170.815Z" fill="#0CCA40"/>
<path d="M62.3273 170.815C62.3612 156.262 65.2807 141.881 70.919 128.491C76.5574 115.102 84.8042 102.967 95.1886 92.7787C105.573 82.5908 117.892 74.5497 131.441 69.1144C144.991 63.6791 159.506 60.9562 174.158 61.101C188.81 61.2458 203.311 64.2556 216.835 69.9584C230.359 75.6613 242.639 83.9456 252.976 94.3383C263.312 104.731 271.502 117.029 277.078 130.529C282.654 144.029 285.506 158.468 285.472 173.021L276.448 172.931C276.479 159.556 273.857 146.285 268.732 133.877C263.608 121.468 256.08 110.165 246.58 100.613C237.079 91.0613 225.792 83.447 213.362 78.2055C200.932 72.9639 187.604 70.1976 174.137 70.0645C160.67 69.9314 147.329 72.4341 134.876 77.4297C122.422 82.4254 111.1 89.8161 101.555 99.1799C92.0107 108.544 84.431 119.697 79.2487 132.004C74.0664 144.31 71.3831 157.529 71.3519 170.904L62.3273 170.815Z" fill="#0CCA40"/>
<path d="M62.3273 170.815C62.3612 156.262 65.2807 141.881 70.919 128.491C76.5574 115.102 84.8042 102.967 95.1886 92.7787C105.573 82.5908 117.892 74.5497 131.441 69.1144C144.991 63.6791 159.506 60.9562 174.158 61.101C188.81 61.2458 203.311 64.2556 216.835 69.9584C230.359 75.6613 242.639 83.9456 252.976 94.3383C263.312 104.731 271.502 117.029 277.078 130.529C282.654 144.029 285.506 158.468 285.472 173.021L276.448 172.931C276.479 159.556 273.857 146.285 268.732 133.877C263.608 121.468 256.08 110.165 246.58 100.613C237.079 91.0613 225.792 83.447 213.362 78.2055C200.932 72.9639 187.604 70.1976 174.137 70.0645C160.67 69.9314 147.329 72.4341 134.876 77.4297C122.422 82.4254 111.1 89.8161 101.555 99.1799C92.0107 108.544 84.431 119.697 79.2487 132.004C74.0664 144.31 71.3831 157.529 71.3519 170.904L62.3273 170.815Z" fill="#0CCA40"/>
<path d="M62.3273 170.815C62.3612 156.262 65.2807 141.881 70.919 128.491C76.5574 115.102 84.8042 102.967 95.1886 92.7787C105.573 82.5908 117.892 74.5497 131.441 69.1144C144.991 63.6791 159.506 60.9562 174.158 61.101C188.81 61.2458 203.311 64.2556 216.835 69.9584C230.359 75.6613 242.639 83.9456 252.976 94.3383C263.312 104.731 271.502 117.029 277.078 130.529C282.654 144.029 285.506 158.468 285.472 173.021L276.448 172.931C276.479 159.556 273.857 146.285 268.732 133.877C263.608 121.468 256.08 110.165 246.58 100.613C237.079 91.0613 225.792 83.447 213.362 78.2055C200.932 72.9639 187.604 70.1976 174.137 70.0645C160.67 69.9314 147.329 72.4341 134.876 77.4297C122.422 82.4254 111.1 89.8161 101.555 99.1799C92.0107 108.544 84.431 119.697 79.2487 132.004C74.0664 144.31 71.3831 157.529 71.3519 170.904L62.3273 170.815Z" fill="#0CCA40"/>
<path d="M62.3273 170.815C62.3612 156.262 65.2807 141.881 70.919 128.491C76.5574 115.102 84.8042 102.967 95.1886 92.7787C105.573 82.5908 117.892 74.5497 131.441 69.1144C144.991 63.6791 159.506 60.9562 174.158 61.101C188.81 61.2458 203.311 64.2556 216.835 69.9584C230.359 75.6613 242.639 83.9456 252.976 94.3383C263.312 104.731 271.502 117.029 277.078 130.529C282.654 144.029 285.506 158.468 285.472 173.021L276.448 172.931C276.479 159.556 273.857 146.285 268.732 133.877C263.608 121.468 256.08 110.165 246.58 100.613C237.079 91.0613 225.792 83.447 213.362 78.2055C200.932 72.9639 187.604 70.1976 174.137 70.0645C160.67 69.9314 147.329 72.4341 134.876 77.4297C122.422 82.4254 111.1 89.8161 101.555 99.1799C92.0107 108.544 84.431 119.697 79.2487 132.004C74.0664 144.31 71.3831 157.529 71.3519 170.904L62.3273 170.815Z" fill="#0CCA40"/>
<path d="M68.8358 171.639C68.864 158.031 71.5889 144.584 76.8549 132.065C82.1208 119.546 89.8247 108.2 99.5267 98.6758C109.229 89.1516 120.739 81.6352 133.4 76.5558C146.061 71.4764 159.625 68.9335 173.317 69.0723C187.009 69.211 200.562 72.0287 213.202 77.3645C225.841 82.7003 237.319 90.4497 246.981 100.17C256.643 109.891 264.3 121.392 269.514 134.017C274.727 146.643 277.396 160.145 277.368 173.753L268.935 173.667C268.96 161.16 266.507 148.75 261.715 137.146C256.923 125.542 249.886 114.971 241.006 106.036C232.125 97.1022 221.575 89.9797 209.958 85.0755C198.341 80.1713 185.885 77.5815 173.3 77.4539C160.715 77.3264 148.248 79.6636 136.611 84.3321C124.974 89.0007 114.395 95.9091 105.478 104.663C96.5606 113.417 89.4799 123.845 84.6399 135.351C79.7999 146.858 77.2954 159.218 77.2694 171.725L68.8358 171.639Z" fill="#FFCF24"/>
<path d="M68.8358 171.639C68.864 158.031 71.5889 144.584 76.8549 132.065C82.1208 119.546 89.8247 108.2 99.5267 98.6758C109.229 89.1516 120.739 81.6352 133.4 76.5558C146.061 71.4764 159.625 68.9335 173.317 69.0723C187.009 69.211 200.562 72.0287 213.202 77.3645C225.841 82.7003 237.319 90.4497 246.981 100.17C256.643 109.891 264.3 121.392 269.514 134.017C274.727 146.643 277.396 160.145 277.368 173.753L268.935 173.667C268.96 161.16 266.507 148.75 261.715 137.146C256.923 125.542 249.886 114.971 241.006 106.036C232.125 97.1022 221.575 89.9797 209.958 85.0755C198.341 80.1713 185.885 77.5815 173.3 77.4539C160.715 77.3264 148.248 79.6636 136.611 84.3321C124.974 89.0007 114.395 95.9091 105.478 104.663C96.5606 113.417 89.4799 123.845 84.6399 135.351C79.7999 146.858 77.2954 159.218 77.2694 171.725L68.8358 171.639Z" fill="#FFCF24"/>
<path d="M68.8358 171.639C68.864 158.031 71.5889 144.584 76.8549 132.065C82.1208 119.546 89.8247 108.2 99.5267 98.6758C109.229 89.1516 120.739 81.6352 133.4 76.5558C146.061 71.4764 159.625 68.9335 173.317 69.0723C187.009 69.211 200.562 72.0287 213.202 77.3645C225.841 82.7003 237.319 90.4497 246.981 100.17C256.643 109.891 264.3 121.392 269.514 134.017C274.727 146.643 277.396 160.145 277.368 173.753L268.935 173.667C268.96 161.16 266.507 148.75 261.715 137.146C256.923 125.542 249.886 114.971 241.006 106.036C232.125 97.1022 221.575 89.9797 209.958 85.0755C198.341 80.1713 185.885 77.5815 173.3 77.4539C160.715 77.3264 148.248 79.6636 136.611 84.3321C124.974 89.0007 114.395 95.9091 105.478 104.663C96.5606 113.417 89.4799 123.845 84.6399 135.351C79.7999 146.858 77.2954 159.218 77.2694 171.725L68.8358 171.639Z" fill="#0CCA40"/>
<path d="M68.8358 171.639C68.864 158.031 71.5889 144.584 76.8549 132.065C82.1208 119.546 89.8247 108.2 99.5267 98.6758C109.229 89.1516 120.739 81.6352 133.4 76.5558C146.061 71.4764 159.625 68.9335 173.317 69.0723C187.009 69.211 200.562 72.0287 213.202 77.3645C225.841 82.7003 237.319 90.4497 246.981 100.17C256.643 109.891 264.3 121.392 269.514 134.017C274.727 146.643 277.396 160.145 277.368 173.753L268.935 173.667C268.96 161.16 266.507 148.75 261.715 137.146C256.923 125.542 249.886 114.971 241.006 106.036C232.125 97.1022 221.575 89.9797 209.958 85.0755C198.341 80.1713 185.885 77.5815 173.3 77.4539C160.715 77.3264 148.248 79.6636 136.611 84.3321C124.974 89.0007 114.395 95.9091 105.478 104.663C96.5606 113.417 89.4799 123.845 84.6399 135.351C79.7999 146.858 77.2954 159.218 77.2694 171.725L68.8358 171.639Z" fill="#0CCA40"/>
<path d="M68.8358 171.639C68.864 158.031 71.5889 144.584 76.8549 132.065C82.1208 119.546 89.8247 108.2 99.5267 98.6758C109.229 89.1516 120.739 81.6352 133.4 76.5558C146.061 71.4764 159.625 68.9335 173.317 69.0723C187.009 69.211 200.562 72.0287 213.202 77.3645C225.841 82.7003 237.319 90.4497 246.981 100.17C256.643 109.891 264.3 121.392 269.514 134.017C274.727 146.643 277.396 160.145 277.368 173.753L268.935 173.667C268.96 161.16 266.507 148.75 261.715 137.146C256.923 125.542 249.886 114.971 241.006 106.036C232.125 97.1022 221.575 89.9797 209.958 85.0755C198.341 80.1713 185.885 77.5815 173.3 77.4539C160.715 77.3264 148.248 79.6636 136.611 84.3321C124.974 89.0007 114.395 95.9091 105.478 104.663C96.5606 113.417 89.4799 123.845 84.6399 135.351C79.7999 146.858 77.2954 159.218 77.2694 171.725L68.8358 171.639Z" fill="#0CCA40"/>
<path d="M68.8358 171.639C68.864 158.031 71.5889 144.584 76.8549 132.065C82.1208 119.546 89.8247 108.2 99.5267 98.6758C109.229 89.1516 120.739 81.6352 133.4 76.5558C146.061 71.4764 159.625 68.9335 173.317 69.0723C187.009 69.211 200.562 72.0287 213.202 77.3645C225.841 82.7003 237.319 90.4497 246.981 100.17C256.643 109.891 264.3 121.392 269.514 134.017C274.727 146.643 277.396 160.145 277.368 173.753L268.935 173.667C268.96 161.16 266.507 148.75 261.715 137.146C256.923 125.542 249.886 114.971 241.006 106.036C232.125 97.1022 221.575 89.9797 209.958 85.0755C198.341 80.1713 185.885 77.5815 173.3 77.4539C160.715 77.3264 148.248 79.6636 136.611 84.3321C124.974 89.0007 114.395 95.9091 105.478 104.663C96.5606 113.417 89.4799 123.845 84.6399 135.351C79.7999 146.858 77.2954 159.218 77.2694 171.725L68.8358 171.639Z" fill="#0CCA40"/>
<path d="M68.8358 171.639C68.864 158.031 71.5889 144.584 76.8549 132.065C82.1208 119.546 89.8247 108.2 99.5267 98.6758C109.229 89.1516 120.739 81.6352 133.4 76.5558C146.061 71.4764 159.625 68.9335 173.317 69.0723C187.009 69.211 200.562 72.0287 213.202 77.3645C225.841 82.7003 237.319 90.4497 246.981 100.17C256.643 109.891 264.3 121.392 269.514 134.017C274.727 146.643 277.396 160.145 277.368 173.753L268.935 173.667C268.96 161.16 266.507 148.75 261.715 137.146C256.923 125.542 249.886 114.971 241.006 106.036C232.125 97.1022 221.575 89.9797 209.958 85.0755C198.341 80.1713 185.885 77.5815 173.3 77.4539C160.715 77.3264 148.248 79.6636 136.611 84.3321C124.974 89.0007 114.395 95.9091 105.478 104.663C96.5606 113.417 89.4799 123.845 84.6399 135.351C79.7999 146.858 77.2954 159.218 77.2694 171.725L68.8358 171.639Z" fill="#26D8F0"/>
<path d="M76.0549 172.335C76.1393 159.831 78.7292 147.464 83.6767 135.939C88.6241 124.414 95.8322 113.957 104.889 105.165C113.947 96.3736 124.675 89.4195 136.464 84.6998C148.252 79.9801 160.868 77.5874 173.592 77.6582C186.317 77.7289 198.9 80.2619 210.623 85.1123C222.347 89.9628 232.981 97.0358 241.918 105.928C250.856 114.819 257.922 125.355 262.714 136.935C267.505 148.514 269.928 160.909 269.843 173.413L262.006 173.37C262.084 161.877 259.857 150.484 255.453 139.842C251.049 129.199 244.555 119.515 236.34 111.343C228.125 103.17 218.351 96.6692 207.576 92.211C196.801 87.7529 185.235 85.4248 173.54 85.3598C161.845 85.2947 150.249 87.4939 139.415 91.8318C128.58 96.1698 118.719 102.561 110.394 110.642C102.07 118.722 95.4448 128.333 90.8975 138.926C86.3502 149.519 83.9698 160.886 83.8922 172.379L76.0549 172.335Z" fill="#FFCF24"/>
<path d="M76.0549 172.335C76.1393 159.831 78.7292 147.464 83.6767 135.939C88.6241 124.414 95.8322 113.957 104.889 105.165C113.947 96.3736 124.675 89.4195 136.464 84.6998C148.252 79.9801 160.868 77.5874 173.592 77.6582C186.317 77.7289 198.9 80.2619 210.623 85.1123C222.347 89.9628 232.981 97.0358 241.918 105.928C250.856 114.819 257.922 125.355 262.714 136.935C267.505 148.514 269.928 160.909 269.843 173.413L262.006 173.37C262.084 161.877 259.857 150.484 255.453 139.842C251.049 129.199 244.555 119.515 236.34 111.343C228.125 103.17 218.351 96.6692 207.576 92.211C196.801 87.7529 185.235 85.4248 173.54 85.3598C161.845 85.2947 150.249 87.4939 139.415 91.8318C128.58 96.1698 118.719 102.561 110.394 110.642C102.07 118.722 95.4448 128.333 90.8975 138.926C86.3502 149.519 83.9698 160.886 83.8922 172.379L76.0549 172.335Z" fill="#FFCF24"/>
<path d="M76.0549 172.335C76.1393 159.831 78.7292 147.464 83.6767 135.939C88.6241 124.414 95.8322 113.957 104.889 105.165C113.947 96.3736 124.675 89.4195 136.464 84.6998C148.252 79.9801 160.868 77.5874 173.592 77.6582C186.317 77.7289 198.9 80.2619 210.623 85.1123C222.347 89.9628 232.981 97.0358 241.918 105.928C250.856 114.819 257.922 125.355 262.714 136.935C267.505 148.514 269.928 160.909 269.843 173.413L262.006 173.37C262.084 161.877 259.857 150.484 255.453 139.842C251.049 129.199 244.555 119.515 236.34 111.343C228.125 103.17 218.351 96.6692 207.576 92.211C196.801 87.7529 185.235 85.4248 173.54 85.3598C161.845 85.2947 150.249 87.4939 139.415 91.8318C128.58 96.1698 118.719 102.561 110.394 110.642C102.07 118.722 95.4448 128.333 90.8975 138.926C86.3502 149.519 83.9698 160.886 83.8922 172.379L76.0549 172.335Z" fill="#0CCA40"/>
<path d="M76.0549 172.335C76.1393 159.831 78.7292 147.464 83.6767 135.939C88.6241 124.414 95.8322 113.957 104.889 105.165C113.947 96.3736 124.675 89.4195 136.464 84.6998C148.252 79.9801 160.868 77.5874 173.592 77.6582C186.317 77.7289 198.9 80.2619 210.623 85.1123C222.347 89.9628 232.981 97.0358 241.918 105.928C250.856 114.819 257.922 125.355 262.714 136.935C267.505 148.514 269.928 160.909 269.843 173.413L262.006 173.37C262.084 161.877 259.857 150.484 255.453 139.842C251.049 129.199 244.555 119.515 236.34 111.343C228.125 103.17 218.351 96.6692 207.576 92.211C196.801 87.7529 185.235 85.4248 173.54 85.3598C161.845 85.2947 150.249 87.4939 139.415 91.8318C128.58 96.1698 118.719 102.561 110.394 110.642C102.07 118.722 95.4448 128.333 90.8975 138.926C86.3502 149.519 83.9698 160.886 83.8922 172.379L76.0549 172.335Z" fill="#0CCA40"/>
<path d="M76.0549 172.335C76.1393 159.831 78.7292 147.464 83.6767 135.939C88.6241 124.414 95.8322 113.957 104.889 105.165C113.947 96.3736 124.675 89.4195 136.464 84.6998C148.252 79.9801 160.868 77.5874 173.592 77.6582C186.317 77.7289 198.9 80.2619 210.623 85.1123C222.347 89.9628 232.981 97.0358 241.918 105.928C250.856 114.819 257.922 125.355 262.714 136.935C267.505 148.514 269.928 160.909 269.843 173.413L262.006 173.37C262.084 161.877 259.857 150.484 255.453 139.842C251.049 129.199 244.555 119.515 236.34 111.343C228.125 103.17 218.351 96.6692 207.576 92.211C196.801 87.7529 185.235 85.4248 173.54 85.3598C161.845 85.2947 150.249 87.4939 139.415 91.8318C128.58 96.1698 118.719 102.561 110.394 110.642C102.07 118.722 95.4448 128.333 90.8975 138.926C86.3502 149.519 83.9698 160.886 83.8922 172.379L76.0549 172.335Z" fill="#0CCA40"/>
<path d="M76.0549 172.335C76.1393 159.831 78.7292 147.464 83.6767 135.939C88.6241 124.414 95.8322 113.957 104.889 105.165C113.947 96.3736 124.675 89.4195 136.464 84.6998C148.252 79.9801 160.868 77.5874 173.592 77.6582C186.317 77.7289 198.9 80.2619 210.623 85.1123C222.347 89.9628 232.981 97.0358 241.918 105.928C250.856 114.819 257.922 125.355 262.714 136.935C267.505 148.514 269.928 160.909 269.843 173.413L262.006 173.37C262.084 161.877 259.857 150.484 255.453 139.842C251.049 129.199 244.555 119.515 236.34 111.343C228.125 103.17 218.351 96.6692 207.576 92.211C196.801 87.7529 185.235 85.4248 173.54 85.3598C161.845 85.2947 150.249 87.4939 139.415 91.8318C128.58 96.1698 118.719 102.561 110.394 110.642C102.07 118.722 95.4448 128.333 90.8975 138.926C86.3502 149.519 83.9698 160.886 83.8922 172.379L76.0549 172.335Z" fill="#0CCA40"/>
<path d="M76.0549 172.335C76.1393 159.831 78.7292 147.464 83.6767 135.939C88.6241 124.414 95.8322 113.957 104.889 105.165C113.947 96.3736 124.675 89.4195 136.464 84.6998C148.252 79.9801 160.868 77.5874 173.592 77.6582C186.317 77.7289 198.9 80.2619 210.623 85.1123C222.347 89.9628 232.981 97.0358 241.918 105.928C250.856 114.819 257.922 125.355 262.714 136.935C267.505 148.514 269.928 160.909 269.843 173.413L262.006 173.37C262.084 161.877 259.857 150.484 255.453 139.842C251.049 129.199 244.555 119.515 236.34 111.343C228.125 103.17 218.351 96.6692 207.576 92.211C196.801 87.7529 185.235 85.4248 173.54 85.3598C161.845 85.2947 150.249 87.4939 139.415 91.8318C128.58 96.1698 118.719 102.561 110.394 110.642C102.07 118.722 95.4448 128.333 90.8975 138.926C86.3502 149.519 83.9698 160.886 83.8922 172.379L76.0549 172.335Z" fill="#4285F4"/>
<path d="M76.0549 172.335C76.1393 159.831 78.7292 147.464 83.6767 135.939C88.6241 124.414 95.8322 113.957 104.889 105.165C113.947 96.3736 124.675 89.4195 136.464 84.6998C148.252 79.9801 160.868 77.5874 173.592 77.6582C186.317 77.7289 198.9 80.2619 210.623 85.1123C222.347 89.9628 232.981 97.0358 241.918 105.928C250.856 114.819 257.922 125.355 262.714 136.935C267.505 148.514 269.928 160.909 269.843 173.413L262.006 173.37C262.084 161.877 259.857 150.484 255.453 139.842C251.049 129.199 244.555 119.515 236.34 111.343C228.125 103.17 218.351 96.6692 207.576 92.211C196.801 87.7529 185.235 85.4248 173.54 85.3598C161.845 85.2947 150.249 87.4939 139.415 91.8318C128.58 96.1698 118.719 102.561 110.394 110.642C102.07 118.722 95.4448 128.333 90.8975 138.926C86.3502 149.519 83.9698 160.886 83.8922 172.379L76.0549 172.335Z" fill="#4285F4"/>
<path d="M83.6811 171.04C83.7318 159.409 86.0997 147.911 90.6498 137.201C95.1999 126.491 101.843 116.78 110.2 108.621C118.556 100.463 128.463 94.017 139.354 89.652C150.246 85.2869 161.908 83.088 173.676 83.1809C185.443 83.2738 197.085 85.6566 207.938 90.1932C218.79 94.7299 228.64 101.332 236.925 109.621C245.21 117.911 251.768 127.727 256.225 138.508C260.681 149.288 262.949 160.824 262.898 172.454L255.65 172.397C255.697 161.707 253.612 151.105 249.516 141.196C245.421 131.287 239.393 122.266 231.778 114.646C224.163 107.027 215.11 100.959 205.135 96.7897C195.161 92.62 184.46 90.43 173.644 90.3446C162.829 90.2593 152.11 92.2803 142.099 96.2923C132.089 100.304 122.984 106.229 115.303 113.727C107.622 121.226 101.516 130.152 97.3342 139.995C93.1521 149.839 90.9757 160.407 90.9291 171.097L83.6811 171.04Z" fill="#FFCF24"/>
<path d="M83.6811 171.04C83.7318 159.409 86.0997 147.911 90.6498 137.201C95.1999 126.491 101.843 116.78 110.2 108.621C118.556 100.463 128.463 94.017 139.354 89.652C150.246 85.2869 161.908 83.088 173.676 83.1809C185.443 83.2738 197.085 85.6566 207.938 90.1932C218.79 94.7299 228.64 101.332 236.925 109.621C245.21 117.911 251.768 127.727 256.225 138.508C260.681 149.288 262.949 160.824 262.898 172.454L255.65 172.397C255.697 161.707 253.612 151.105 249.516 141.196C245.421 131.287 239.393 122.266 231.778 114.646C224.163 107.027 215.11 100.959 205.135 96.7897C195.161 92.62 184.46 90.43 173.644 90.3446C162.829 90.2593 152.11 92.2803 142.099 96.2923C132.089 100.304 122.984 106.229 115.303 113.727C107.622 121.226 101.516 130.152 97.3342 139.995C93.1521 149.839 90.9757 160.407 90.9291 171.097L83.6811 171.04Z" fill="#FFCF24"/>
<path d="M83.6811 171.04C83.7318 159.409 86.0997 147.911 90.6498 137.201C95.1999 126.491 101.843 116.78 110.2 108.621C118.556 100.463 128.463 94.017 139.354 89.652C150.246 85.2869 161.908 83.088 173.676 83.1809C185.443 83.2738 197.085 85.6566 207.938 90.1932C218.79 94.7299 228.64 101.332 236.925 109.621C245.21 117.911 251.768 127.727 256.225 138.508C260.681 149.288 262.949 160.824 262.898 172.454L255.65 172.397C255.697 161.707 253.612 151.105 249.516 141.196C245.421 131.287 239.393 122.266 231.778 114.646C224.163 107.027 215.11 100.959 205.135 96.7897C195.161 92.62 184.46 90.43 173.644 90.3446C162.829 90.2593 152.11 92.2803 142.099 96.2923C132.089 100.304 122.984 106.229 115.303 113.727C107.622 121.226 101.516 130.152 97.3342 139.995C93.1521 149.839 90.9757 160.407 90.9291 171.097L83.6811 171.04Z" fill="#0CCA40"/>
<path d="M83.6811 171.04C83.7318 159.409 86.0997 147.911 90.6498 137.201C95.1999 126.491 101.843 116.78 110.2 108.621C118.556 100.463 128.463 94.017 139.354 89.652C150.246 85.2869 161.908 83.088 173.676 83.1809C185.443 83.2738 197.085 85.6566 207.938 90.1932C218.79 94.7299 228.64 101.332 236.925 109.621C245.21 117.911 251.768 127.727 256.225 138.508C260.681 149.288 262.949 160.824 262.898 172.454L255.65 172.397C255.697 161.707 253.612 151.105 249.516 141.196C245.421 131.287 239.393 122.266 231.778 114.646C224.163 107.027 215.11 100.959 205.135 96.7897C195.161 92.62 184.46 90.43 173.644 90.3446C162.829 90.2593 152.11 92.2803 142.099 96.2923C132.089 100.304 122.984 106.229 115.303 113.727C107.622 121.226 101.516 130.152 97.3342 139.995C93.1521 149.839 90.9757 160.407 90.9291 171.097L83.6811 171.04Z" fill="#0CCA40"/>
<path d="M83.6811 171.04C83.7318 159.409 86.0997 147.911 90.6498 137.201C95.1999 126.491 101.843 116.78 110.2 108.621C118.556 100.463 128.463 94.017 139.354 89.652C150.246 85.2869 161.908 83.088 173.676 83.1809C185.443 83.2738 197.085 85.6566 207.938 90.1932C218.79 94.7299 228.64 101.332 236.925 109.621C245.21 117.911 251.768 127.727 256.225 138.508C260.681 149.288 262.949 160.824 262.898 172.454L255.65 172.397C255.697 161.707 253.612 151.105 249.516 141.196C245.421 131.287 239.393 122.266 231.778 114.646C224.163 107.027 215.11 100.959 205.135 96.7897C195.161 92.62 184.46 90.43 173.644 90.3446C162.829 90.2593 152.11 92.2803 142.099 96.2923C132.089 100.304 122.984 106.229 115.303 113.727C107.622 121.226 101.516 130.152 97.3342 139.995C93.1521 149.839 90.9757 160.407 90.9291 171.097L83.6811 171.04Z" fill="#0CCA40"/>
<path d="M83.6811 171.04C83.7318 159.409 86.0997 147.911 90.6498 137.201C95.1999 126.491 101.843 116.78 110.2 108.621C118.556 100.463 128.463 94.017 139.354 89.652C150.246 85.2869 161.908 83.088 173.676 83.1809C185.443 83.2738 197.085 85.6566 207.938 90.1932C218.79 94.7299 228.64 101.332 236.925 109.621C245.21 117.911 251.768 127.727 256.225 138.508C260.681 149.288 262.949 160.824 262.898 172.454L255.65 172.397C255.697 161.707 253.612 151.105 249.516 141.196C245.421 131.287 239.393 122.266 231.778 114.646C224.163 107.027 215.11 100.959 205.135 96.7897C195.161 92.62 184.46 90.43 173.644 90.3446C162.829 90.2593 152.11 92.2803 142.099 96.2923C132.089 100.304 122.984 106.229 115.303 113.727C107.622 121.226 101.516 130.152 97.3342 139.995C93.1521 149.839 90.9757 160.407 90.9291 171.097L83.6811 171.04Z" fill="#0CCA40"/>
<path d="M83.6811 171.04C83.7318 159.409 86.0997 147.911 90.6498 137.201C95.1999 126.491 101.843 116.78 110.2 108.621C118.556 100.463 128.463 94.017 139.354 89.652C150.246 85.2869 161.908 83.088 173.676 83.1809C185.443 83.2738 197.085 85.6566 207.938 90.1932C218.79 94.7299 228.64 101.332 236.925 109.621C245.21 117.911 251.768 127.727 256.225 138.508C260.681 149.288 262.949 160.824 262.898 172.454L255.65 172.397C255.697 161.707 253.612 151.105 249.516 141.196C245.421 131.287 239.393 122.266 231.778 114.646C224.163 107.027 215.11 100.959 205.135 96.7897C195.161 92.62 184.46 90.43 173.644 90.3446C162.829 90.2593 152.11 92.2803 142.099 96.2923C132.089 100.304 122.984 106.229 115.303 113.727C107.622 121.226 101.516 130.152 97.3342 139.995C93.1521 149.839 90.9757 160.407 90.9291 171.097L83.6811 171.04Z" fill="#4285F4"/>
<path d="M83.6811 171.04C83.7318 159.409 86.0997 147.911 90.6498 137.201C95.1999 126.491 101.843 116.78 110.2 108.621C118.556 100.463 128.463 94.017 139.354 89.652C150.246 85.2869 161.908 83.088 173.676 83.1809C185.443 83.2738 197.085 85.6566 207.938 90.1932C218.79 94.7299 228.64 101.332 236.925 109.621C245.21 117.911 251.768 127.727 256.225 138.508C260.681 149.288 262.949 160.824 262.898 172.454L255.65 172.397C255.697 161.707 253.612 151.105 249.516 141.196C245.421 131.287 239.393 122.266 231.778 114.646C224.163 107.027 215.11 100.959 205.135 96.7897C195.161 92.62 184.46 90.43 173.644 90.3446C162.829 90.2593 152.11 92.2803 142.099 96.2923C132.089 100.304 122.984 106.229 115.303 113.727C107.622 121.226 101.516 130.152 97.3342 139.995C93.1521 149.839 90.9757 160.407 90.9291 171.097L83.6811 171.04Z" fill="#8411AC"/>
</svg>
